<?xml version="1.0" standalone="no"?>
<!DOCTYPE svg PUBLIC "-//W3C//DTD SVG 20010904//EN"
 "http://www.w3.org/TR/2001/REC-SVG-20010904/DTD/svg10.dtd">
<svg version="1.0" xmlns="http://www.w3.org/2000/svg"
 width="164.000000pt" height="98.000000pt" viewBox="0 0 164.000000 98.000000"
 preserveAspectRatio="xMidYMid meet">

<g transform="translate(0.000000,98.000000) scale(0.100000,-0.100000)"
fill="#000000" stroke="none">
<path d="M1401 962 c-80 -40 -120 -137 -88 -212 15 -33 15 -34 16 -9 1 34 29
66 64 75 23 5 33 0 61 -29 25 -27 36 -33 49 -25 10 5 26 6 37 3 15 -5 18 -3
14 9 -3 8 4 24 15 35 12 12 16 23 10 27 -5 3 -9 13 -8 22 6 48 -67 123 -118
122 -10 -1 -33 -9 -52 -18z"/>
<path d="M1600 890 c0 -5 5 -10 10 -10 6 0 10 5 10 10 0 6 -4 10 -10 10 -5 0
-10 -4 -10 -10z"/>
<path d="M1623 832 c-8 -5 -8 -12 3 -26 13 -19 14 -19 14 7 0 30 0 30 -17 19z"/>
<path d="M1598 743 c-11 -3 -18 -14 -18 -30 0 -22 2 -24 16 -13 18 16 38 50
27 49 -4 -1 -16 -3 -25 -6z"/>
<path d="M1457 696 c-4 -9 -21 -19 -38 -23 l-31 -6 23 -13 c28 -16 88 -18 109
-4 13 8 13 10 -2 10 -9 0 -25 12 -36 26 -16 23 -20 24 -25 10z"/>
<path d="M10 435 l0 -195 45 0 45 0 0 111 c0 73 3 108 10 104 6 -4 42 -53 81
-111 69 -103 70 -104 109 -104 l40 0 0 195 0 195 -40 0 -40 0 0 -89 c0 -50 -4
-92 -9 -95 -8 -5 -73 72 -129 151 -20 29 -28 33 -67 33 l-45 0 0 -195z"/>
<path d="M430 435 l0 -195 45 0 45 0 0 195 0 195 -45 0 -45 0 0 -195z"/>
<path d="M600 434 l0 -195 43 3 42 3 3 63 3 62 44 0 c42 0 44 -1 84 -65 l41
-65 55 0 55 0 -45 69 c-25 38 -45 73 -45 76 0 4 11 20 25 37 38 45 35 111 -7
166 l-32 42 -133 0 -133 0 0 -196z m221 104 c44 -53 6 -97 -83 -98 l-58 0 0
60 0 60 61 0 c51 0 64 -4 80 -22z"/>
<path d="M1000 471 l0 -160 37 -30 c35 -29 43 -31 121 -31 74 0 87 3 118 26
l34 26 0 164 0 164 -40 0 -40 0 0 -137 c-1 -163 -5 -173 -73 -173 -36 0 -49 5
-57 19 -5 11 -10 81 -10 155 l0 136 -45 0 -45 0 0 -159z"/>
<path d="M145 150 c-3 -5 1 -10 10 -10 9 0 13 5 10 10 -3 6 -8 10 -10 10 -2 0
-7 -4 -10 -10z"/>
<path d="M877 122 c6 -4 13 -32 16 -62 l3 -55 2 63 c2 53 0 62 -15 62 -12 0
-14 -3 -6 -8z"/>
<path d="M997 123 c-12 -12 -7 -40 9 -54 10 -8 13 -22 10 -38 -4 -16 4 -7 20
22 20 38 23 52 13 63 -12 15 -41 19 -52 7z m41 -26 c2 -10 -3 -17 -12 -17 -10
0 -16 9 -16 21 0 24 23 21 28 -4z"/>
<path d="M1143 123 c32 -5 33 -12 6 -64 -11 -23 -18 -43 -15 -46 5 -6 56 90
56 107 0 5 -17 9 -37 9 -31 -2 -33 -3 -10 -6z"/>
<path d="M1260 110 c-8 -15 -6 -23 10 -38 13 -12 18 -26 15 -38 -4 -10 3 -3
14 16 25 43 26 66 5 74 -25 10 -33 7 -44 -14z m48 -13 c2 -12 -3 -17 -17 -17
-15 0 -21 6 -21 21 0 25 33 22 38 -4z"/>
<path d="M19 104 c-12 -14 -10 -19 15 -39 32 -25 27 -50 -7 -39 -17 5 -19 3
-11 -6 18 -18 49 -8 52 17 2 14 -4 26 -17 33 -28 14 -27 30 2 30 18 0 19 2 7
10 -21 13 -25 13 -41 -6z"/>
<path d="M268 113 c-26 -4 -28 -8 -28 -54 0 -60 18 -65 22 -6 2 35 7 43 26 45
20 3 22 -1 22 -42 0 -25 5 -46 10 -46 14 0 12 84 -2 98 -7 7 -14 11 -17 11 -4
-1 -18 -4 -33 -6z"/>
<path d="M433 110 c-44 -18 -37 -84 12 -96 13 -3 32 -1 42 5 15 9 12 10 -20
11 -25 0 -40 5 -44 16 -10 26 11 49 46 49 17 0 31 3 31 7 0 5 -4 8 -9 8 -5 0
-15 2 -23 4 -7 3 -23 1 -35 -4z"/>
<path d="M602 104 c-27 -18 -29 -55 -4 -77 21 -20 58 -22 68 -5 5 8 0 9 -15 5
-29 -7 -51 1 -51 19 0 10 12 14 40 14 33 0 40 3 40 20 0 18 -26 40 -47 40 -5
0 -19 -7 -31 -16z m56 -21 c2 -8 -6 -13 -22 -13 -26 0 -40 12 -29 24 11 11 46
2 51 -11z"/>
<path d="M153 60 c0 -30 2 -43 4 -28 2 16 2 40 0 55 -2 16 -4 3 -4 -27z"/>
</g>
</svg>
